<mxfile host="Electron" modified="2023-10-08T10:15:20.359Z" agent="Mozilla/5.0 (Macintosh; Intel Mac OS X 10_15_7) AppleWebKit/537.36 (KHTML, like Gecko) draw.io/22.0.2 Chrome/114.0.5735.289 Electron/25.8.4 Safari/537.36" etag="ozSCzFetVlewCiaM2W0Z" version="22.0.2" type="device">
  <diagram name="페이지-1" id="4AOpML2BjdTlAsWgLXYS">
    <mxGraphModel dx="1807" dy="894" grid="1" gridSize="10" guides="1" tooltips="1" connect="1" arrows="1" fold="1" page="1" pageScale="1" pageWidth="827" pageHeight="1169" math="0" shadow="0">
      <root>
        <mxCell id="0" />
        <mxCell id="1" parent="0" />
        <mxCell id="PCFdK6Wu_mNVghDDVuRO-1" value="" style="rounded=1;whiteSpace=wrap;html=1;fillColor=#f5f5f5;fontColor=#333333;strokeColor=#666666;" vertex="1" parent="1">
          <mxGeometry x="130" y="240" width="350" height="290" as="geometry" />
        </mxCell>
        <mxCell id="PCFdK6Wu_mNVghDDVuRO-3" value="데이터베이스" style="rounded=1;whiteSpace=wrap;html=1;" vertex="1" parent="1">
          <mxGeometry x="550" y="350" width="120" height="60" as="geometry" />
        </mxCell>
        <mxCell id="PCFdK6Wu_mNVghDDVuRO-10" style="edgeStyle=orthogonalEdgeStyle;rounded=0;orthogonalLoop=1;jettySize=auto;html=1;exitX=0.25;exitY=0;exitDx=0;exitDy=0;entryX=0.25;entryY=1;entryDx=0;entryDy=0;endArrow=block;endFill=1;" edge="1" parent="1">
          <mxGeometry relative="1" as="geometry">
            <mxPoint x="290" y="350" as="sourcePoint" />
            <mxPoint x="290" y="210" as="targetPoint" />
          </mxGeometry>
        </mxCell>
        <mxCell id="PCFdK6Wu_mNVghDDVuRO-14" style="edgeStyle=orthogonalEdgeStyle;rounded=0;orthogonalLoop=1;jettySize=auto;html=1;exitX=1;exitY=0.25;exitDx=0;exitDy=0;entryX=0;entryY=0.25;entryDx=0;entryDy=0;endArrow=block;endFill=1;" edge="1" parent="1" source="PCFdK6Wu_mNVghDDVuRO-4" target="PCFdK6Wu_mNVghDDVuRO-3">
          <mxGeometry relative="1" as="geometry" />
        </mxCell>
        <mxCell id="PCFdK6Wu_mNVghDDVuRO-15" style="edgeStyle=orthogonalEdgeStyle;rounded=0;orthogonalLoop=1;jettySize=auto;html=1;exitX=1;exitY=0.75;exitDx=0;exitDy=0;entryX=0;entryY=0.75;entryDx=0;entryDy=0;startArrow=block;startFill=1;endArrow=none;endFill=0;" edge="1" parent="1" source="PCFdK6Wu_mNVghDDVuRO-4" target="PCFdK6Wu_mNVghDDVuRO-3">
          <mxGeometry relative="1" as="geometry" />
        </mxCell>
        <mxCell id="PCFdK6Wu_mNVghDDVuRO-16" style="edgeStyle=orthogonalEdgeStyle;rounded=0;orthogonalLoop=1;jettySize=auto;html=1;exitX=0.25;exitY=1;exitDx=0;exitDy=0;entryX=0.25;entryY=0;entryDx=0;entryDy=0;endArrow=block;endFill=1;" edge="1" parent="1">
          <mxGeometry relative="1" as="geometry">
            <mxPoint x="289" y="410" as="sourcePoint" />
            <mxPoint x="289" y="560" as="targetPoint" />
          </mxGeometry>
        </mxCell>
        <mxCell id="PCFdK6Wu_mNVghDDVuRO-4" value="영속 상태" style="rounded=0;whiteSpace=wrap;html=1;fillColor=#dae8fc;strokeColor=#6c8ebf;" vertex="1" parent="1">
          <mxGeometry x="245" y="350" width="120" height="60" as="geometry" />
        </mxCell>
        <mxCell id="PCFdK6Wu_mNVghDDVuRO-11" style="edgeStyle=orthogonalEdgeStyle;rounded=0;orthogonalLoop=1;jettySize=auto;html=1;exitX=0.75;exitY=1;exitDx=0;exitDy=0;entryX=0.75;entryY=0;entryDx=0;entryDy=0;endArrow=block;endFill=1;" edge="1" parent="1">
          <mxGeometry relative="1" as="geometry">
            <mxPoint x="314" y="210" as="sourcePoint" />
            <mxPoint x="314" y="350" as="targetPoint" />
          </mxGeometry>
        </mxCell>
        <mxCell id="PCFdK6Wu_mNVghDDVuRO-5" value="준영속 상태" style="rounded=0;whiteSpace=wrap;html=1;fillColor=#dae8fc;strokeColor=#6c8ebf;" vertex="1" parent="1">
          <mxGeometry x="245" y="150" width="120" height="60" as="geometry" />
        </mxCell>
        <mxCell id="PCFdK6Wu_mNVghDDVuRO-8" style="edgeStyle=orthogonalEdgeStyle;rounded=0;orthogonalLoop=1;jettySize=auto;html=1;entryX=0;entryY=0.5;entryDx=0;entryDy=0;endArrow=block;endFill=1;" edge="1" parent="1" source="PCFdK6Wu_mNVghDDVuRO-6" target="PCFdK6Wu_mNVghDDVuRO-4">
          <mxGeometry relative="1" as="geometry" />
        </mxCell>
        <mxCell id="PCFdK6Wu_mNVghDDVuRO-6" value="비영속 상태" style="rounded=0;whiteSpace=wrap;html=1;fillColor=#dae8fc;strokeColor=#6c8ebf;" vertex="1" parent="1">
          <mxGeometry x="-30" y="350" width="120" height="60" as="geometry" />
        </mxCell>
        <mxCell id="PCFdK6Wu_mNVghDDVuRO-17" style="edgeStyle=orthogonalEdgeStyle;rounded=0;orthogonalLoop=1;jettySize=auto;html=1;exitX=0.75;exitY=0;exitDx=0;exitDy=0;entryX=0.75;entryY=1;entryDx=0;entryDy=0;endArrow=block;endFill=1;" edge="1" parent="1">
          <mxGeometry relative="1" as="geometry">
            <mxPoint x="315" y="560" as="sourcePoint" />
            <mxPoint x="315" y="410" as="targetPoint" />
          </mxGeometry>
        </mxCell>
        <mxCell id="PCFdK6Wu_mNVghDDVuRO-18" style="edgeStyle=orthogonalEdgeStyle;rounded=0;orthogonalLoop=1;jettySize=auto;html=1;entryX=0.5;entryY=1;entryDx=0;entryDy=0;endArrow=block;endFill=1;" edge="1" parent="1" source="PCFdK6Wu_mNVghDDVuRO-7" target="PCFdK6Wu_mNVghDDVuRO-3">
          <mxGeometry relative="1" as="geometry" />
        </mxCell>
        <mxCell id="PCFdK6Wu_mNVghDDVuRO-7" value="삭제 상태" style="rounded=0;whiteSpace=wrap;html=1;fillColor=#dae8fc;strokeColor=#6c8ebf;" vertex="1" parent="1">
          <mxGeometry x="245" y="560" width="120" height="60" as="geometry" />
        </mxCell>
        <mxCell id="PCFdK6Wu_mNVghDDVuRO-9" value="persist()" style="text;html=1;strokeColor=none;fillColor=none;align=center;verticalAlign=middle;whiteSpace=wrap;rounded=0;" vertex="1" parent="1">
          <mxGeometry x="130" y="354" width="60" height="30" as="geometry" />
        </mxCell>
        <mxCell id="PCFdK6Wu_mNVghDDVuRO-12" value="detach()&lt;br&gt;clear()&lt;br&gt;close()" style="text;html=1;strokeColor=none;fillColor=none;align=left;verticalAlign=middle;whiteSpace=wrap;rounded=0;" vertex="1" parent="1">
          <mxGeometry x="230" y="248" width="70" height="50" as="geometry" />
        </mxCell>
        <mxCell id="PCFdK6Wu_mNVghDDVuRO-13" value="merge()" style="text;html=1;strokeColor=none;fillColor=none;align=center;verticalAlign=middle;whiteSpace=wrap;rounded=0;" vertex="1" parent="1">
          <mxGeometry x="320" y="310" width="60" height="30" as="geometry" />
        </mxCell>
        <mxCell id="PCFdK6Wu_mNVghDDVuRO-19" value="flush()" style="text;html=1;strokeColor=none;fillColor=none;align=center;verticalAlign=middle;whiteSpace=wrap;rounded=0;" vertex="1" parent="1">
          <mxGeometry x="384" y="560" width="60" height="30" as="geometry" />
        </mxCell>
        <mxCell id="PCFdK6Wu_mNVghDDVuRO-21" value="flush()" style="text;html=1;strokeColor=none;fillColor=none;align=center;verticalAlign=middle;whiteSpace=wrap;rounded=0;" vertex="1" parent="1">
          <mxGeometry x="427" y="340" width="60" height="30" as="geometry" />
        </mxCell>
        <mxCell id="PCFdK6Wu_mNVghDDVuRO-22" value="find()" style="text;html=1;strokeColor=none;fillColor=none;align=center;verticalAlign=middle;whiteSpace=wrap;rounded=0;" vertex="1" parent="1">
          <mxGeometry x="367" y="391" width="60" height="30" as="geometry" />
        </mxCell>
        <mxCell id="PCFdK6Wu_mNVghDDVuRO-23" value="persist()" style="text;html=1;strokeColor=none;fillColor=none;align=center;verticalAlign=middle;whiteSpace=wrap;rounded=0;" vertex="1" parent="1">
          <mxGeometry x="320" y="421" width="60" height="30" as="geometry" />
        </mxCell>
        <mxCell id="PCFdK6Wu_mNVghDDVuRO-24" value="remove()" style="text;html=1;strokeColor=none;fillColor=none;align=center;verticalAlign=middle;whiteSpace=wrap;rounded=0;" vertex="1" parent="1">
          <mxGeometry x="230" y="500" width="60" height="30" as="geometry" />
        </mxCell>
        <mxCell id="PCFdK6Wu_mNVghDDVuRO-25" value="영속성 컨텍스트" style="text;html=1;strokeColor=none;fillColor=none;align=center;verticalAlign=middle;whiteSpace=wrap;rounded=0;fontStyle=1" vertex="1" parent="1">
          <mxGeometry x="380" y="490" width="80" height="30" as="geometry" />
        </mxCell>
      </root>
    </mxGraphModel>
  </diagram>
</mxfile>
